<svg version="1.1" id="Layer_1" xmlns="http://www.w3.org/2000/svg" xmlns:xlink="http://www.w3.org/1999/xlink" x="0px" y="0px"
	 width="100%" viewBox="0 0 186 108" enable-background="new 0 0 186 108" xml:space="preserve">
<path fill="#FEFEFE" opacity="1.000000" stroke="none" 
	d="
M112.000000,109.000000 
	C74.698013,109.000000 37.896023,109.000000 1.047016,109.000000 
	C1.047016,73.062027 1.047016,37.123985 1.047016,1.092969 
	C62.885136,1.092969 124.770454,1.092969 186.827881,1.092969 
	C186.827881,36.999348 186.827881,72.999588 186.827881,109.000000 
	C162.124374,109.000000 137.312180,109.000000 112.000000,109.000000 
M55.493801,50.120693 
	C55.475018,49.007164 55.062565,47.698372 55.502129,46.812195 
	C58.112171,41.550262 55.946320,36.806702 50.151096,36.147491 
	C46.601852,35.743763 42.969250,36.072865 39.354290,36.072865 
	C39.354290,45.421669 39.354290,54.160023 39.354290,63.123367 
	C43.116737,63.123367 46.605495,63.416149 50.027550,63.062866 
	C57.315372,62.310493 59.636475,57.315712 55.493801,50.120693 
M132.848404,63.567287 
	C138.000961,62.811028 140.947891,59.348797 141.821930,54.718636 
	C142.904083,48.986069 143.323624,42.925854 138.429276,38.375549 
	C137.065872,37.107967 134.998566,36.252151 133.130051,35.932106 
	C124.368965,34.431488 119.064758,39.057465 118.473106,48.440472 
	C117.822845,58.752918 122.286255,63.773129 132.848404,63.567287 
M93.390610,40.764091 
	C93.390717,47.254356 93.277740,53.748432 93.496231,60.231339 
	C93.535103,61.384750 94.950546,62.491768 95.730354,63.620213 
	C96.249596,63.351795 96.768829,63.083378 97.288063,62.814960 
	C97.288063,58.909798 97.288063,55.004635 97.288063,51.122139 
	C101.693817,51.122139 105.632812,51.122139 110.034561,51.122139 
	C110.034561,55.197338 110.034561,59.100765 110.034561,63.004192 
	C110.424240,63.260098 110.813919,63.516003 111.203598,63.771908 
	C112.084839,62.874550 113.706238,61.996868 113.730705,61.076721 
	C113.934105,53.427029 113.932678,45.767006 113.720146,38.117683 
	C113.695244,37.221432 112.016373,36.371136 111.104263,35.499535 
	C110.717064,35.750206 110.329857,36.000874 109.942657,36.251545 
	C109.942657,40.004982 109.942657,43.758415 109.942657,47.551109 
	C105.503990,47.551109 101.526367,47.551109 97.075180,47.551109 
	C97.075180,43.652298 97.075180,39.890301 97.075180,36.128307 
	C96.466209,35.939362 95.857231,35.750416 95.248260,35.561474 
	C94.629219,36.985249 94.010170,38.409019 93.390610,40.764091 
M160.158005,51.972675 
	C164.819504,49.954826 165.806229,46.063435 164.854141,41.674179 
	C163.873367,37.152630 160.157333,36.069481 156.082199,35.964111 
	C153.319138,35.892662 150.552719,35.950470 147.391006,35.950470 
	C147.391006,44.556023 147.304504,52.655758 147.501114,60.748608 
	C147.525528,61.753742 149.053040,62.722359 149.884048,63.707897 
	C150.315140,63.407787 150.746231,63.107681 151.177322,62.807571 
	C151.177322,59.544838 151.177322,56.282101 151.177322,52.988007 
	C154.136108,52.675667 156.749222,52.399815 160.158005,51.972675 
M71.260033,60.446289 
	C73.090973,64.620262 76.970627,63.798939 80.182663,63.673210 
	C84.162796,63.517414 87.604584,62.101898 88.219460,57.202576 
	C88.819633,52.420311 86.699516,49.636780 82.421227,48.095230 
	C80.866341,47.534985 78.978905,47.341835 77.848297,46.314968 
	C76.697754,45.269989 75.621559,43.330856 75.776588,41.922352 
	C75.896698,40.830971 77.891350,39.264454 79.181274,39.128452 
	C81.686340,38.864323 84.281761,39.457104 87.033943,39.712921 
	C86.993935,34.785393 83.155830,35.895592 80.648499,35.760757 
	C76.653297,35.545902 72.921822,36.479149 71.978302,41.287334 
	C70.992874,46.309132 72.669991,48.334671 79.929337,51.207706 
	C82.617203,52.271481 85.522926,53.427570 84.444077,57.124153 
	C83.444466,60.549252 80.486153,60.664680 77.519409,60.337231 
	C75.474121,60.111488 73.428169,59.891762 71.260033,60.446289 
z"/>
<path fill="#4E84C7" opacity="1.000000" stroke="none" 
	d="
M55.761845,50.386238 
	C59.636475,57.315712 57.315372,62.310493 50.027550,63.062866 
	C46.605495,63.416149 43.116737,63.123367 39.354290,63.123367 
	C39.354290,54.160023 39.354290,45.421669 39.354290,36.072865 
	C42.969250,36.072865 46.601852,35.743763 50.151096,36.147491 
	C55.946320,36.806702 58.112171,41.550262 55.502129,46.812195 
	C55.062565,47.698372 55.475018,49.007164 55.761845,50.386238 
M46.386517,60.057632 
	C48.679230,59.173332 51.180984,58.591000 53.144764,57.231544 
	C53.782673,56.789944 53.467449,53.233669 52.809978,52.957993 
	C49.884560,51.731365 46.677006,51.177624 43.571438,50.380642 
	C43.233730,50.850300 42.896023,51.319958 42.558311,51.789616 
	C44.842392,54.206558 39.975739,58.472748 46.386517,60.057632 
M45.455338,39.091408 
	C40.206223,40.872677 44.062393,44.650085 43.091438,47.657021 
	C47.364189,47.769520 51.897472,48.676723 52.582989,43.484558 
	C53.102921,39.546608 49.409222,39.182663 45.455338,39.091408 
z"/>
<path fill="#121212" opacity="1.000000" stroke="none" 
	d="
M132.449631,63.639641 
	C122.286255,63.773129 117.822845,58.752918 118.473106,48.440472 
	C119.064758,39.057465 124.368965,34.431488 133.130051,35.932106 
	C134.998566,36.252151 137.065872,37.107967 138.429276,38.375549 
	C143.323624,42.925854 142.904083,48.986069 141.821930,54.718636 
	C140.947891,59.348797 138.000961,62.811028 132.449631,63.639641 
M123.805244,56.420647 
	C125.502457,59.851696 128.372894,61.180325 131.977310,60.423965 
	C135.599121,59.663960 137.702148,57.075352 138.013489,53.459999 
	C138.264908,50.540440 138.373276,47.473145 137.747391,44.648121 
	C136.984436,41.204517 134.619797,38.918526 130.724747,38.808350 
	C126.627792,38.692459 123.797958,40.843693 123.196426,44.563129 
	C122.610596,48.185360 123.285355,52.011463 123.805244,56.420647 
z"/>
<path fill="#1B1B1B" opacity="1.000000" stroke="none" 
	d="
M93.390869,40.298443 
	C94.010170,38.409019 94.629219,36.985249 95.248260,35.561474 
	C95.857231,35.750416 96.466209,35.939362 97.075180,36.128307 
	C97.075180,39.890301 97.075180,43.652298 97.075180,47.551109 
	C101.526367,47.551109 105.503990,47.551109 109.942657,47.551109 
	C109.942657,43.758415 109.942657,40.004982 109.942657,36.251545 
	C110.329857,36.000874 110.717064,35.750206 111.104263,35.499535 
	C112.016373,36.371136 113.695244,37.221432 113.720146,38.117683 
	C113.932678,45.767006 113.934105,53.427029 113.730705,61.076721 
	C113.706238,61.996868 112.084839,62.874550 111.203598,63.771908 
	C110.813919,63.516003 110.424240,63.260098 110.034561,63.004192 
	C110.034561,59.100765 110.034561,55.197338 110.034561,51.122139 
	C105.632812,51.122139 101.693817,51.122139 97.288063,51.122139 
	C97.288063,55.004635 97.288063,58.909798 97.288063,62.814960 
	C96.768829,63.083378 96.249596,63.351795 95.730354,63.620213 
	C94.950546,62.491768 93.535103,61.384750 93.496231,60.231339 
	C93.277740,53.748432 93.390717,47.254356 93.390869,40.298443 
z"/>
<path fill="#1B1B1B" opacity="1.000000" stroke="none" 
	d="
M159.760178,52.048321 
	C156.749222,52.399815 154.136108,52.675667 151.177322,52.988007 
	C151.177322,56.282101 151.177322,59.544838 151.177322,62.807571 
	C150.746231,63.107681 150.315140,63.407787 149.884048,63.707897 
	C149.053040,62.722359 147.525528,61.753742 147.501114,60.748608 
	C147.304504,52.655758 147.391006,44.556023 147.391006,35.950470 
	C150.552719,35.950470 153.319138,35.892662 156.082199,35.964111 
	C160.157333,36.069481 163.873367,37.152630 164.854141,41.674179 
	C165.806229,46.063435 164.819504,49.954826 159.760178,52.048321 
M151.100204,46.426769 
	C151.164490,51.811821 155.009689,49.091614 157.217621,49.019989 
	C160.708328,48.906746 161.589417,46.175819 160.969086,43.309345 
	C159.721832,37.545654 155.177750,39.488506 151.099792,39.224411 
	C151.099792,41.567425 151.099792,43.528091 151.100204,46.426769 
z"/>
<path fill="#0F0F0F" opacity="1.000000" stroke="none" 
	d="
M71.321274,60.057816 
	C73.428169,59.891762 75.474121,60.111488 77.519409,60.337231 
	C80.486153,60.664680 83.444466,60.549252 84.444077,57.124153 
	C85.522926,53.427570 82.617203,52.271481 79.929337,51.207706 
	C72.669991,48.334671 70.992874,46.309132 71.978302,41.287334 
	C72.921822,36.479149 76.653297,35.545902 80.648499,35.760757 
	C83.155830,35.895592 86.993935,34.785393 87.033943,39.712921 
	C84.281761,39.457104 81.686340,38.864323 79.181274,39.128452 
	C77.891350,39.264454 75.896698,40.830971 75.776588,41.922352 
	C75.621559,43.330856 76.697754,45.269989 77.848297,46.314968 
	C78.978905,47.341835 80.866341,47.534985 82.421227,48.095230 
	C86.699516,49.636780 88.819633,52.420311 88.219460,57.202576 
	C87.604584,62.101898 84.162796,63.517414 80.182663,63.673210 
	C76.970627,63.798939 73.090973,64.620262 71.321274,60.057816 
z"/>
<path fill="#FCFDFE" opacity="1.000000" stroke="none" 
	d="
M45.942078,60.054996 
	C39.975739,58.472748 44.842392,54.206558 42.558311,51.789616 
	C42.896023,51.319958 43.233730,50.850300 43.571438,50.380642 
	C46.677006,51.177624 49.884560,51.731365 52.809978,52.957993 
	C53.467449,53.233669 53.782673,56.789944 53.144764,57.231544 
	C51.180984,58.591000 48.679230,59.173332 45.942078,60.054996 
z"/>
<path fill="#F3F7FB" opacity="1.000000" stroke="none" 
	d="
M45.885330,39.089619 
	C49.409222,39.182663 53.102921,39.546608 52.582989,43.484558 
	C51.897472,48.676723 47.364189,47.769520 43.091438,47.657021 
	C44.062393,44.650085 40.206223,40.872677 45.885330,39.089619 
z"/>
<path fill="#F8F8F8" opacity="1.000000" stroke="none" 
	d="
M123.605942,56.084351 
	C123.285355,52.011463 122.610596,48.185360 123.196426,44.563129 
	C123.797958,40.843693 126.627792,38.692459 130.724747,38.808350 
	C134.619797,38.918526 136.984436,41.204517 137.747391,44.648121 
	C138.373276,47.473145 138.264908,50.540440 138.013489,53.459999 
	C137.702148,57.075352 135.599121,59.663960 131.977310,60.423965 
	C128.372894,61.180325 125.502457,59.851696 123.605942,56.084351 
z"/>
<path fill="#F7F7F7" opacity="1.000000" stroke="none" 
	d="
M151.100006,45.957764 
	C151.099792,43.528091 151.099792,41.567425 151.099792,39.224411 
	C155.177750,39.488506 159.721832,37.545654 160.969086,43.309345 
	C161.589417,46.175819 160.708328,48.906746 157.217621,49.019989 
	C155.009689,49.091614 151.164490,51.811821 151.100006,45.957764 
z"/>
</svg>